<svg xmlns="http://www.w3.org/2000/svg" xmlns:xlink="http://www.w3.org/1999/xlink" xmlns:svgjs="http://svgjs.com/svgjs" version="1.1" width="1440" height="560" preserveAspectRatio="none" viewBox="0 0 1440 560"><g mask="url(&quot;#SvgjsMask1063&quot;)" fill="none"><rect width="1440" height="560" x="0" y="0" fill="url(#SvgjsLinearGradient1064)"/><path d="M1436 132L1746 -178" stroke-width="10" stroke="url(#SvgjsLinearGradient1065)" stroke-linecap="round" class="BottomLeft"/><path d="M500 277L161 616" stroke-width="8" stroke="url(#SvgjsLinearGradient1065)" stroke-linecap="round" class="BottomLeft"/><path d="M54 366L-172 592" stroke-width="6" stroke="url(#SvgjsLinearGradient1065)" stroke-linecap="round" class="BottomLeft"/><path d="M1362 272L1118 516" stroke-width="8" stroke="url(#SvgjsLinearGradient1066)" stroke-linecap="round" class="TopRight"/><path d="M1380 217L1618 -21" stroke-width="8" stroke="url(#SvgjsLinearGradient1065)" stroke-linecap="round" class="BottomLeft"/><path d="M822 509L491 840" stroke-width="8" stroke="url(#SvgjsLinearGradient1066)" stroke-linecap="round" class="TopRight"/><path d="M479 35L670 -156" stroke-width="8" stroke="url(#SvgjsLinearGradient1065)" stroke-linecap="round" class="BottomLeft"/><path d="M445 218L591 72" stroke-width="6" stroke="url(#SvgjsLinearGradient1066)" stroke-linecap="round" class="TopRight"/><path d="M1326 514L1719 121" stroke-width="6" stroke="url(#SvgjsLinearGradient1065)" stroke-linecap="round" class="BottomLeft"/><path d="M1098 550L1373 275" stroke-width="6" stroke="url(#SvgjsLinearGradient1065)" stroke-linecap="round" class="BottomLeft"/><path d="M489 296L258 527" stroke-width="10" stroke="url(#SvgjsLinearGradient1066)" stroke-linecap="round" class="TopRight"/><path d="M379 62L-10 451" stroke-width="8" stroke="url(#SvgjsLinearGradient1065)" stroke-linecap="round" class="BottomLeft"/><path d="M1133 69L983 219" stroke-width="8" stroke="url(#SvgjsLinearGradient1066)" stroke-linecap="round" class="TopRight"/><path d="M655 152L1071 -264" stroke-width="10" stroke="url(#SvgjsLinearGradient1066)" stroke-linecap="round" class="TopRight"/><path d="M481 560L634 407" stroke-width="10" stroke="url(#SvgjsLinearGradient1065)" stroke-linecap="round" class="BottomLeft"/><path d="M679 25L278 426" stroke-width="10" stroke="url(#SvgjsLinearGradient1066)" stroke-linecap="round" class="TopRight"/><path d="M373 281L203 451" stroke-width="8" stroke="url(#SvgjsLinearGradient1066)" stroke-linecap="round" class="TopRight"/><path d="M894 511L715 690" stroke-width="10" stroke="url(#SvgjsLinearGradient1066)" stroke-linecap="round" class="TopRight"/><path d="M321 173L636 -142" stroke-width="6" stroke="url(#SvgjsLinearGradient1065)" stroke-linecap="round" class="BottomLeft"/><path d="M865 31L549 347" stroke-width="10" stroke="url(#SvgjsLinearGradient1066)" stroke-linecap="round" class="TopRight"/><path d="M870 478L1016 332" stroke-width="8" stroke="url(#SvgjsLinearGradient1066)" stroke-linecap="round" class="TopRight"/><path d="M897 229L607 519" stroke-width="8" stroke="url(#SvgjsLinearGradient1066)" stroke-linecap="round" class="TopRight"/><path d="M1203 318L1451 70" stroke-width="8" stroke="url(#SvgjsLinearGradient1066)" stroke-linecap="round" class="TopRight"/><path d="M1294 479L1635 138" stroke-width="10" stroke="url(#SvgjsLinearGradient1066)" stroke-linecap="round" class="TopRight"/><path d="M212 250L-118 580" stroke-width="8" stroke="url(#SvgjsLinearGradient1065)" stroke-linecap="round" class="BottomLeft"/><path d="M229 57L-43 329" stroke-width="8" stroke="url(#SvgjsLinearGradient1066)" stroke-linecap="round" class="TopRight"/><path d="M102 344L-310 756" stroke-width="10" stroke="url(#SvgjsLinearGradient1066)" stroke-linecap="round" class="TopRight"/><path d="M1422 141L1675 -112" stroke-width="6" stroke="url(#SvgjsLinearGradient1066)" stroke-linecap="round" class="TopRight"/><path d="M763 409L1088 84" stroke-width="10" stroke="url(#SvgjsLinearGradient1066)" stroke-linecap="round" class="TopRight"/><path d="M1000 190L666 524" stroke-width="10" stroke="url(#SvgjsLinearGradient1065)" stroke-linecap="round" class="BottomLeft"/><path d="M480 119L876 -277" stroke-width="6" stroke="url(#SvgjsLinearGradient1065)" stroke-linecap="round" class="BottomLeft"/><path d="M531 144L366 309" stroke-width="8" stroke="url(#SvgjsLinearGradient1066)" stroke-linecap="round" class="TopRight"/><path d="M798 356L483 671" stroke-width="6" stroke="url(#SvgjsLinearGradient1065)" stroke-linecap="round" class="BottomLeft"/><path d="M1306 240L1673 -127" stroke-width="6" stroke="url(#SvgjsLinearGradient1065)" stroke-linecap="round" class="BottomLeft"/><path d="M756 358L489 625" stroke-width="10" stroke="url(#SvgjsLinearGradient1066)" stroke-linecap="round" class="TopRight"/><path d="M219 183L-110 512" stroke-width="6" stroke="url(#SvgjsLinearGradient1065)" stroke-linecap="round" class="BottomLeft"/><path d="M1181 217L1397 1" stroke-width="8" stroke="url(#SvgjsLinearGradient1065)" stroke-linecap="round" class="BottomLeft"/><path d="M294 546L-45 885" stroke-width="10" stroke="url(#SvgjsLinearGradient1065)" stroke-linecap="round" class="BottomLeft"/><path d="M513 556L285 784" stroke-width="6" stroke="url(#SvgjsLinearGradient1065)" stroke-linecap="round" class="BottomLeft"/></g><defs><mask id="SvgjsMask1063"><rect width="1440" height="560" fill="#ffffff"/></mask><linearGradient x1="100%" y1="50%" x2="0%" y2="50%" gradientUnits="userSpaceOnUse" id="SvgjsLinearGradient1064"><stop stop-color="rgba(0, 166, 160, 1)" offset="0"/><stop stop-color="rgba(69, 176, 158, 1)" offset="0.99"/></linearGradient><linearGradient x1="100%" y1="0%" x2="0%" y2="100%" id="SvgjsLinearGradient1065"><stop stop-color="rgba(69, 176, 158, 0)" offset="0"/><stop stop-color="rgba(69, 176, 158, 1)" offset="1"/></linearGradient><linearGradient x1="0%" y1="100%" x2="100%" y2="0%" id="SvgjsLinearGradient1066"><stop stop-color="rgba(69, 176, 158, 0)" offset="0"/><stop stop-color="rgba(69, 176, 158, 1)" offset="1"/></linearGradient></defs></svg>