<?xml version="1.0" standalone="no"?>
<!DOCTYPE svg PUBLIC "-//W3C//DTD SVG 20010904//EN"
 "http://www.w3.org/TR/2001/REC-SVG-20010904/DTD/svg10.dtd">
<svg version="1.0" xmlns="http://www.w3.org/2000/svg"
 width="100.000000pt" height="100.000000pt" viewBox="0 0 100.000000 100.000000"
 preserveAspectRatio="xMidYMid meet">

<g transform="translate(0.000000,100.000000) scale(0.100000,-0.100000)"
fill="currentColor" stroke="none">
<path d="M195 950 c-11 -4 -31 -20 -45 -35 l-25 -27 -3 -379 c-3 -421 -3 -422
62 -453 29 -14 79 -16 365 -16 324 0 331 0 331 20 0 20 -7 20 -335 20 l-336 0
-24 25 c-33 32 -32 68 1 94 26 20 38 21 360 21 l334 0 0 76 c0 66 -2 75 -17
72 -14 -2 -19 -15 -21 -55 l-3 -52 -322 -3 c-177 -2 -330 -7 -339 -12 -17 -8
-18 10 -18 308 l0 317 25 24 24 25 315 0 315 0 3 -42 c2 -31 8 -44 21 -46 15
-3 17 5 17 62 l0 66 -332 -1 c-183 0 -342 -4 -353 -9z"/>
<path d="M732 789 c-48 -14 -109 -80 -123 -131 -23 -89 12 -182 88 -229 57
-36 154 -34 210 3 62 41 88 90 88 168 0 77 -26 127 -85 166 -43 29 -125 39
-178 23z m134 -45 c103 -49 125 -175 45 -255 -66 -66 -159 -65 -223 2 -122
128 19 328 178 253z"/>
<path d="M787 714 c-4 -4 -7 -27 -7 -50 l0 -43 -47 -3 c-35 -2 -48 -7 -48 -18
0 -11 13 -16 47 -18 l47 -3 3 -47 c2 -34 7 -47 18 -47 11 0 16 13 18 47 l3 47
47 3 c34 2 47 7 47 18 0 11 -13 16 -47 18 l-47 3 -3 46 c-3 44 -15 62 -31 47z"/>
</g>
</svg>
