<?xml version="1.0" standalone="no"?>
<!DOCTYPE svg PUBLIC "-//W3C//DTD SVG 20010904//EN"
 "http://www.w3.org/TR/2001/REC-SVG-20010904/DTD/svg10.dtd">
<svg version="1.0" xmlns="http://www.w3.org/2000/svg"
 width="512.000000pt" height="512.000000pt" viewBox="0 0 512.000000 512.000000"
 preserveAspectRatio="xMidYMid meet">

<g transform="translate(0.000000,512.000000) scale(0.100000,-0.100000)"
fill="#45B09E" stroke="none">
<path d="M1025 4934 c-281 -59 -469 -222 -567 -494 l-23 -65 -3 -1775 c-3
-2004 -8 -1859 75 -2030 39 -79 61 -109 132 -181 71 -70 103 -93 181 -132 157
-78 146 -77 900 -77 613 0 668 1 700 18 92 46 97 188 7 242 -31 19 -55 20
-674 20 -434 0 -659 4 -695 11 -151 32 -260 125 -319 274 l-24 60 -3 1720 c-2
1258 0 1736 8 1780 34 177 177 316 356 345 36 6 528 10 1239 10 1285 0 1266 0
1363 -56 94 -56 161 -135 201 -237 14 -37 17 -142 21 -862 5 -770 6 -823 23
-848 57 -88 187 -88 244 0 17 26 18 73 18 843 0 747 -1 821 -18 891 -61 261
-261 463 -521 529 -77 19 -112 20 -1340 19 -694 -1 -1270 -3 -1281 -5z"/>
<path d="M1241 3692 c-101 -51 -106 -190 -10 -247 33 -20 52 -20 1081 -20
1041 0 1047 0 1074 21 97 72 92 200 -10 248 -31 14 -135 16 -1068 16 -964 0
-1035 -1 -1067 -18z"/>
<path d="M1250 2693 c-23 -9 -60 -45 -76 -75 -28 -54 -13 -118 41 -168 l27
-25 845 -3 c835 -2 846 -2 878 18 85 52 85 188 0 240 -32 20 -47 20 -866 19
-459 0 -841 -3 -849 -6z"/>
<path d="M3585 2188 c-224 -18 -454 -127 -620 -295 -395 -399 -383 -1056 28
-1439 182 -171 395 -260 647 -271 480 -21 895 287 1017 756 54 207 38 438 -44
631 -176 415 -574 654 -1028 618z m243 -294 c248 -51 455 -234 537 -475 89
-262 26 -538 -170 -735 -129 -131 -255 -193 -437 -216 -210 -26 -423 49 -583
207 -134 131 -204 290 -212 480 -6 129 11 225 56 321 149 319 474 487 809 418z"/>
<path d="M3637 1726 c-92 -33 -97 -52 -97 -337 0 -189 3 -237 16 -264 8 -18
68 -85 133 -148 135 -132 159 -144 240 -111 37 16 50 28 70 67 38 76 27 103
-85 217 l-94 96 0 195 c0 175 -2 197 -20 226 -36 59 -98 82 -163 59z"/>
<path d="M1255 1685 c-92 -33 -123 -144 -63 -221 42 -53 51 -54 530 -54 494 0
489 -1 535 69 43 64 20 156 -48 196 -32 19 -54 20 -474 22 -362 2 -447 0 -480
-12z"/>
</g>
</svg>
