<?xml version="1.0" encoding="UTF-8"?>
<svg version="1.1" xmlns="http://www.w3.org/2000/svg" width="100" height="100">
<path d="M0 0 C1.91604034 -0.04843048 1.91604034 -0.04843048 3.87078857 -0.09783936 C6.57057473 -0.15772258 9.2699494 -0.19717606 11.97021484 -0.22753906 C14.72609548 -0.26299493 17.4739038 -0.34638206 20.22705078 -0.47363281 C42.44047119 -1.47975093 42.44047119 -1.47975093 48.08911133 2.53979492 C51.97833462 6.79972392 53.94197323 11.57627666 55.859375 16.953125 C56.849375 18.438125 56.849375 18.438125 57.859375 19.953125 C58.32421875 22.359375 58.32421875 22.359375 57.859375 24.953125 C55.48828125 27.109375 55.48828125 27.109375 52.421875 29.453125 C49.42511055 32.03690941 47.17106883 34.30648609 46.41748047 38.28759766 C46.28754487 40.95917553 46.28973222 43.59186516 46.359375 46.265625 C46.57771299 56.02179506 44.35585462 60.99723642 37.71875 68.04296875 C37.29045898 68.46441162 36.86216797 68.88585449 36.42089844 69.32006836 C34.6284243 71.06002553 34.6284243 71.06002553 33.08618164 74.09838867 C31.10418677 76.4700317 30.02943918 76.92255283 26.9392395 77.47807312 C23.07465183 77.64944754 19.23604285 77.62791914 15.37109375 77.5390625 C13.94336228 77.52786362 12.51560767 77.51932669 11.08784485 77.51333618 C7.34060345 77.49049099 3.59477058 77.43160914 -0.1519165 77.3651123 C-4.6529352 77.29276747 -9.15442648 77.26536277 -13.6558609 77.23039246 C-20.48509343 77.17232245 -27.31123927 77.05733151 -34.140625 76.953125 C-34.470625 63.423125 -34.800625 49.893125 -35.140625 35.953125 C-38.605625 36.448125 -38.605625 36.448125 -42.140625 36.953125 C-41.00591431 26.43725967 -36.64436129 18.61664873 -28.57861328 11.95776367 C-25.48974821 9.53801448 -22.36583769 7.18832883 -19.140625 4.953125 C-17.9501355 3.91345581 -17.9501355 3.91345581 -16.7355957 2.8527832 C-11.80714831 -0.38831476 -5.69407724 0.13698505 0 0 Z M-24.140625 15.953125 C-24.140625 16.283125 -24.140625 16.613125 -24.140625 16.953125 C-17.0798163 17.23379384 -10.02046106 17.4253727 -2.95532227 17.55737305 C-0.55633811 17.61243488 1.84228119 17.68731312 4.23999023 17.78295898 C19.39814632 19.04475627 19.39814632 19.04475627 32.58049011 13.01777649 C36.18877641 9.44739235 36.18877641 9.44739235 37.859375 4.953125 C31.2808246 4.6713365 24.70385759 4.48042719 18.12060547 4.34887695 C15.8875923 4.29397735 13.65496676 4.21922366 11.42333984 4.12329102 C-3.65350732 3.49199446 -13.77872703 4.20956356 -24.140625 15.953125 Z M42.859375 6.953125 C38.899375 10.913125 34.939375 14.873125 30.859375 18.953125 C32.7775 22.35625 32.7775 22.35625 34.734375 25.828125 C35.13382324 26.54081543 35.53327148 27.25350586 35.94482422 27.98779297 C37.41777927 30.58271681 38.74007335 32.83382335 40.859375 34.953125 C44.819375 30.993125 48.779375 27.033125 52.859375 22.953125 C50.94125 19.55 50.94125 19.55 48.984375 16.078125 C48.58492676 15.36543457 48.18547852 14.65274414 47.77392578 13.91845703 C46.30097073 11.32353319 44.97867665 9.07242665 42.859375 6.953125 Z M-30.140625 20.953125 C-30.140625 38.113125 -30.140625 55.273125 -30.140625 72.953125 C-11.660625 72.953125 6.819375 72.953125 25.859375 72.953125 C25.859375 55.793125 25.859375 38.633125 25.859375 20.953125 C7.379375 20.953125 -11.100625 20.953125 -30.140625 20.953125 Z M29.859375 27.953125 C29.859375 41.153125 29.859375 54.353125 29.859375 67.953125 C32.334375 65.478125 32.334375 65.478125 34.859375 62.953125 C35.52582031 62.293125 36.19226563 61.633125 36.87890625 60.953125 C41.03329488 56.31903572 42.31056427 53.18084411 42.296875 46.890625 C42.18566164 44.90921145 42.05170421 42.9283155 41.859375 40.953125 C41.27542969 40.91316406 40.69148438 40.87320313 40.08984375 40.83203125 C36.67710079 39.48725513 35.87907562 37.05690814 34.171875 33.890625 C33.08744813 31.90057397 31.9885775 29.91811518 30.859375 27.953125 C30.529375 27.953125 30.199375 27.953125 29.859375 27.953125 Z " fill="#44B09E" transform="translate(42.140625,11.046875)"/>
<path d="M0 0 C7.92 0 15.84 0 24 0 C24 1.32 24 2.64 24 4 C16.08 4 8.16 4 0 4 C0 2.68 0 1.36 0 0 Z " fill="#44AF9D" transform="translate(28,40)"/>
</svg>
