<svg xmlns="http://www.w3.org/2000/svg" xmlns:xlink="http://www.w3.org/1999/xlink" version="1.1" id="Capa_1" x="0px" y="0px" viewBox="0 0 512 512" style="enable-background:new 0 0 512 512;" xml:space="preserve" width="512px" height="512px" class="hovered-paths"><g><g>
	<g>
		<path d="M250.471,104.125c-0.881-2.716-3.228-4.694-6.053-5.104l-31.725-4.61l-14.188-28.747c-1.264-2.56-3.871-4.181-6.726-4.181    s-5.462,1.621-6.726,4.181L170.866,94.41l-31.725,4.61c-2.825,0.41-5.172,2.389-6.054,5.104c-0.882,2.715-0.146,5.695,1.897,7.688    l22.957,22.378l-5.419,31.597c-0.482,2.813,0.674,5.657,2.984,7.335c1.307,0.949,2.854,1.433,4.409,1.433    c1.193,0,2.392-0.284,3.489-0.861l28.375-14.918l28.375,14.918c2.527,1.329,5.59,1.106,7.898-0.571    c2.31-1.678,3.466-4.521,2.984-7.335l-5.419-31.597l22.957-22.378C250.618,109.821,251.354,106.84,250.471,104.125z     M212.324,126.202c-1.768,1.723-2.574,4.205-2.157,6.638l3.517,20.505l-18.415-9.682c-1.093-0.574-2.292-0.861-3.49-0.861    s-2.397,0.287-3.49,0.861l-18.414,9.682l3.517-20.505c0.417-2.433-0.389-4.915-2.157-6.638l-14.898-14.522l20.588-2.992    c2.443-0.354,4.554-1.889,5.647-4.103l9.207-18.656l9.208,18.656c1.093,2.214,3.204,3.748,5.647,4.103l20.588,2.992    L212.324,126.202z" data-original="#000000" class="hovered-path active-path" data-old_color="#000000" fill="#45b09e"/>
	</g>
</g><g>
	<g>
		<path d="M381.052,104.123c-0.882-2.714-3.229-4.692-6.054-5.102l-31.725-4.61l-14.188-28.747c-1.264-2.56-3.871-4.181-6.726-4.181    c-2.855,0-5.462,1.621-6.726,4.181L301.447,94.41l-31.725,4.61c-2.825,0.41-5.172,2.389-6.054,5.104    c-0.882,2.715-0.146,5.695,1.897,7.688l22.957,22.378l-5.419,31.597c-0.482,2.813,0.674,5.657,2.984,7.335    c2.309,1.678,5.371,1.898,7.898,0.571l28.375-14.918l28.375,14.918c1.098,0.577,2.296,0.861,3.489,0.861    c1.555,0,3.103-0.483,4.409-1.433c2.31-1.678,3.466-4.521,2.984-7.335l-5.419-31.597l22.957-22.378    C381.199,109.819,381.935,106.838,381.052,104.123z M342.904,126.202c-1.768,1.723-2.574,4.205-2.157,6.638l3.517,20.505    l-18.415-9.682c-1.093-0.574-2.292-0.861-3.49-0.861s-2.397,0.287-3.49,0.861l-18.415,9.682l3.517-20.505    c0.417-2.433-0.389-4.915-2.157-6.638l-14.898-14.522l20.588-2.992c2.443-0.354,4.554-1.889,5.647-4.103l9.207-18.656    l9.208,18.656c1.093,2.214,3.204,3.748,5.647,4.103l20.588,2.992L342.904,126.202z" data-original="#000000" class="hovered-path active-path" data-old_color="#000000" fill="#45b09e"/>
	</g>
</g><g>
	<g>
		<path d="M511.633,104.125c-0.882-2.716-3.229-4.694-6.054-5.104l-31.725-4.61l-14.188-28.747c-1.264-2.56-3.871-4.181-6.726-4.181    c-2.854,0-5.462,1.621-6.726,4.181L432.027,94.41l-31.725,4.61c-2.825,0.41-5.172,2.389-6.054,5.104    c-0.882,2.715-0.146,5.695,1.897,7.688l22.957,22.378l-5.419,31.597c-0.482,2.813,0.674,5.657,2.984,7.335    c2.31,1.678,5.372,1.898,7.898,0.571l28.375-14.918l28.375,14.918c1.098,0.577,2.296,0.861,3.489,0.861    c1.555,0,3.103-0.483,4.409-1.433c2.31-1.678,3.466-4.521,2.984-7.335l-5.419-31.597l22.957-22.378    C511.779,109.82,512.515,106.84,511.633,104.125z M473.485,126.202c-1.768,1.723-2.574,4.205-2.157,6.638l3.517,20.505    l-18.415-9.682c-1.093-0.574-2.292-0.861-3.49-0.861s-2.397,0.287-3.49,0.861l-18.415,9.682l3.517-20.505    c0.417-2.433-0.389-4.915-2.157-6.638l-14.898-14.522l20.588-2.992c2.443-0.354,4.554-1.889,5.647-4.103l9.208-18.656    l9.207,18.656c1.093,2.214,3.204,3.748,5.647,4.103l20.588,2.992L473.485,126.202z" data-original="#000000" class="hovered-path active-path" data-old_color="#000000" fill="#45b09e"/>
	</g>
</g><g>
	<g>
		<path d="M92.453,120.668c4.142,0,7.5-3.357,7.5-7.5V75.542c0-4.143-3.358-7.5-7.5-7.5H7.5c-4.142,0-7.5,3.357-7.5,7.5v84.953    c0,4.143,3.358,7.5,7.5,7.5h84.953c4.142,0,7.5-3.357,7.5-7.5v-16.996c0-4.143-3.358-7.5-7.5-7.5c-4.142,0-7.5,3.357-7.5,7.5    v9.496H15V83.042h69.953v30.126C84.953,117.311,88.311,120.668,92.453,120.668z" data-original="#000000" class="hovered-path active-path" data-old_color="#000000" fill="#45b09e"/>
	</g>
</g><g>
	<g>
		<path d="M250.47,242.106c-0.88-2.716-3.227-4.695-6.052-5.105l-31.725-4.61l-14.188-28.747c-1.264-2.56-3.871-4.181-6.726-4.181    s-5.462,1.621-6.726,4.181l-14.188,28.747l-31.725,4.61c-2.825,0.41-5.172,2.389-6.054,5.104    c-0.882,2.715-0.146,5.695,1.897,7.688l22.957,22.378l-5.419,31.597c-0.482,2.813,0.674,5.657,2.984,7.335    c1.307,0.949,2.854,1.433,4.409,1.433c1.193,0,2.392-0.284,3.489-0.861l28.375-14.918l28.375,14.918    c2.527,1.329,5.59,1.107,7.898-0.571c2.31-1.678,3.466-4.521,2.984-7.335l-5.419-31.597l22.957-22.378    C250.617,247.803,251.353,244.822,250.47,242.106z M212.324,264.184c-1.768,1.723-2.574,4.205-2.157,6.638l3.517,20.505    l-18.415-9.682c-1.093-0.574-2.292-0.861-3.49-0.861s-2.397,0.287-3.49,0.861l-18.414,9.682l3.517-20.505    c0.417-2.433-0.389-4.915-2.157-6.638l-14.898-14.522l20.588-2.992c2.443-0.354,4.554-1.889,5.647-4.103l9.207-18.656    l9.208,18.656c1.093,2.214,3.204,3.748,5.647,4.103l20.588,2.992L212.324,264.184z" data-original="#000000" class="hovered-path active-path" data-old_color="#000000" fill="#45b09e"/>
	</g>
</g><g>
	<g>
		<path d="M381.05,242.104c-0.88-2.714-3.227-4.693-6.052-5.103l-31.725-4.61l-14.188-28.747c-1.264-2.56-3.871-4.181-6.726-4.181    c-2.855,0-5.462,1.621-6.726,4.181l-14.188,28.747l-31.725,4.61c-2.825,0.41-5.172,2.389-6.054,5.104    c-0.882,2.715-0.146,5.695,1.897,7.688l22.957,22.378l-5.419,31.597c-0.482,2.813,0.674,5.657,2.984,7.335    c2.309,1.678,5.371,1.899,7.898,0.571l28.375-14.918l28.375,14.918c1.098,0.577,2.296,0.861,3.489,0.861    c1.555,0,3.103-0.483,4.409-1.433c2.31-1.678,3.466-4.521,2.984-7.335l-5.419-31.597l22.957-22.378    C381.197,247.801,381.933,244.82,381.05,242.104z M342.904,264.184c-1.768,1.723-2.574,4.205-2.157,6.638l3.517,20.505    l-18.415-9.682c-1.093-0.574-2.292-0.861-3.49-0.861s-2.397,0.287-3.49,0.861l-18.415,9.682l3.517-20.505    c0.417-2.433-0.389-4.915-2.157-6.638l-14.898-14.522l20.588-2.992c2.443-0.354,4.554-1.889,5.647-4.103l9.207-18.656    l9.208,18.656c1.093,2.214,3.204,3.748,5.647,4.103l20.588,2.992L342.904,264.184z" data-original="#000000" class="hovered-path active-path" data-old_color="#000000" fill="#45b09e"/>
	</g>
</g><g>
	<g>
		<path d="M250.47,380.088c-0.88-2.716-3.227-4.694-6.052-5.105l-31.725-4.61l-14.188-28.747c-1.264-2.56-3.871-4.181-6.726-4.181    s-5.462,1.621-6.726,4.181l-14.188,28.747l-31.725,4.61c-2.825,0.41-5.172,2.389-6.054,5.104    c-0.882,2.715-0.146,5.695,1.897,7.688l22.957,22.378l-5.419,31.597c-0.482,2.813,0.674,5.657,2.984,7.335    c1.307,0.949,2.854,1.433,4.409,1.433c1.193,0,2.392-0.284,3.489-0.861l28.375-14.918l28.375,14.918    c2.527,1.328,5.59,1.106,7.898-0.571c2.31-1.678,3.466-4.521,2.984-7.335l-5.419-31.597l22.957-22.378    C250.617,385.784,251.353,382.803,250.47,380.088z M212.324,402.165c-1.768,1.723-2.574,4.205-2.157,6.638l3.517,20.505    l-18.415-9.682c-1.093-0.574-2.292-0.861-3.49-0.861s-2.397,0.287-3.49,0.861l-18.414,9.682l3.517-20.505    c0.417-2.433-0.389-4.915-2.157-6.638l-14.898-14.522l20.588-2.992c2.443-0.354,4.554-1.889,5.647-4.103l9.207-18.656    l9.208,18.656c1.093,2.214,3.204,3.748,5.647,4.103l20.588,2.992L212.324,402.165z" data-original="#000000" class="hovered-path active-path" data-old_color="#000000" fill="#45b09e"/>
	</g>
</g><g>
	<g>
		<path d="M92.453,344.005H7.5c-4.142,0-7.5,3.357-7.5,7.5v84.953c0,4.143,3.358,7.5,7.5,7.5h18.334c4.142,0,7.5-3.357,7.5-7.5    s-3.358-7.5-7.5-7.5H15v-69.953h69.953v69.953H56.166c-4.142,0-7.5,3.357-7.5,7.5s3.358,7.5,7.5,7.5h36.287    c4.142,0,7.5-3.357,7.5-7.5v-84.953C99.953,347.362,96.595,344.005,92.453,344.005z" data-original="#000000" class="hovered-path active-path" data-old_color="#000000" fill="#45b09e"/>
	</g>
</g><g>
	<g>
		<path d="M110.649,215.931c-2.928-2.928-7.677-2.93-10.606-0.001l-0.09,0.09v-2.496c0-4.143-3.358-7.5-7.5-7.5h-19.62    c-4.142,0-7.5,3.357-7.5,7.5s3.358,7.5,7.5,7.5h12.121v9.996l-27.537,27.536l-11.09-11.091c-2.929-2.928-7.678-2.928-10.606,0    c-2.929,2.93-2.929,7.678,0,10.607l16.394,16.394c1.464,1.464,3.384,2.196,5.303,2.196c1.919,0,3.839-0.732,5.303-2.196    l22.233-22.233v38.744H15v-69.953h27.501c4.142,0,7.5-3.357,7.5-7.5s-3.358-7.5-7.5-7.5H7.5c-4.142,0-7.5,3.357-7.5,7.5v84.953    c0,4.143,3.358,7.5,7.5,7.5h84.953c4.142,0,7.5-3.357,7.5-7.5v-61.243l10.696-10.696    C113.578,223.608,113.578,218.86,110.649,215.931z" data-original="#000000" class="hovered-path active-path" data-old_color="#000000" fill="#45b09e"/>
	</g>
</g></g> </svg>